<svg xmlns="http://www.w3.org/2000/svg" width="55" height="46" viewBox="0 0 55 46"><defs><style>.cls-1{isolation:isolate;}.cls-2{fill:#fff;}.cls-3{fill:none;}</style></defs><g id="レイヤー_2" data-name="レイヤー 2"><g id="レイヤー_1-2" data-name="レイヤー 1"><g id="TikTok" class="cls-1"><g class="cls-1"><path class="cls-2" d="M5,30.31V17.76H2.69V15.51h7.57v2.25H8V30.31Z"/><path class="cls-2" d="M12.45,18V16h2.77V18Zm0,12.3V19.75h2.75V30.31Z"/><path class="cls-2" d="M18.31,30.31V15.51h2.74v8.33l2.65-4.09h3.07L24,24l2.71,6.27h-3l-1.88-5.1-.83,1.08v4Z"/><path class="cls-2" d="M29.39,30.31V17.76H27.11V15.51h7.56v2.25H32.42V30.31Z"/><path class="cls-2" d="M38.23,30.49a4.23,4.23,0,0,1-1.93-.41,2.72,2.72,0,0,1-1.22-1.2,4.2,4.2,0,0,1-.41-1.95v-3.8a4.28,4.28,0,0,1,.41-2A2.75,2.75,0,0,1,36.3,20a4.67,4.67,0,0,1,3.87,0,2.78,2.78,0,0,1,1.23,1.19,4.15,4.15,0,0,1,.42,2v3.8a4.08,4.08,0,0,1-.42,1.95,2.75,2.75,0,0,1-1.23,1.2A4.25,4.25,0,0,1,38.23,30.49Zm0-1.86a.73.73,0,0,0,.53-.19,1,1,0,0,0,.24-.53,4.58,4.58,0,0,0,.06-.78V23a4.46,4.46,0,0,0-.06-.79,1,1,0,0,0-.24-.53.8.8,0,0,0-1.06,0,1,1,0,0,0-.24.53,3.62,3.62,0,0,0-.07.79v4.18a3.71,3.71,0,0,0,.07.78,1,1,0,0,0,.24.53A.73.73,0,0,0,38.25,28.63Z"/><path class="cls-2" d="M43.85,30.31V15.51h2.74v8.33l2.65-4.09h3.07L49.57,24l2.7,6.27h-3l-1.88-5.1-.82,1.08v4Z"/></g></g><rect id="長方形_223" data-name="長方形 223" class="cls-3" width="55" height="46"/></g></g></svg>