<svg xmlns="http://www.w3.org/2000/svg" width="55" height="46" viewBox="0 0 55 46">
  <g id="グループ_191" data-name="グループ 191" transform="translate(-6.796 0.174)">
    <g id="グループ_69" data-name="グループ 69" transform="translate(14.893 3.437)">
      <path id="パス_13" data-name="パス 13" d="M23.545,7.587c5.2,0,5.813.02,7.866.113a10.775,10.775,0,0,1,3.615.67,6.447,6.447,0,0,1,3.694,3.694,10.774,10.774,0,0,1,.67,3.615c.094,2.053.113,2.668.113,7.866s-.02,5.813-.113,7.866a10.775,10.775,0,0,1-.67,3.615,6.447,6.447,0,0,1-3.694,3.694,10.774,10.774,0,0,1-3.615.67c-2.052.094-2.668.113-7.866.113s-5.814-.02-7.866-.113a10.774,10.774,0,0,1-3.615-.67A6.447,6.447,0,0,1,8.37,35.026a10.774,10.774,0,0,1-.67-3.615c-.094-2.053-.113-2.668-.113-7.866s.02-5.813.113-7.866a10.774,10.774,0,0,1,.67-3.615A6.447,6.447,0,0,1,12.065,8.37a10.774,10.774,0,0,1,3.615-.67c2.053-.094,2.668-.113,7.866-.113m0-3.508c-5.287,0-5.95.022-8.026.117a14.288,14.288,0,0,0-4.725.9A9.954,9.954,0,0,0,5.1,10.794a14.289,14.289,0,0,0-.9,4.725c-.095,2.076-.117,2.739-.117,8.026S4.1,29.5,4.2,31.571A14.289,14.289,0,0,0,5.1,36.3a9.954,9.954,0,0,0,5.693,5.693,14.289,14.289,0,0,0,4.725.9c2.076.095,2.739.117,8.026.117s5.95-.022,8.026-.117a14.289,14.289,0,0,0,4.725-.9A9.954,9.954,0,0,0,41.99,36.3a14.289,14.289,0,0,0,.9-4.725c.095-2.076.117-2.739.117-8.026s-.022-5.95-.117-8.026a14.289,14.289,0,0,0-.9-4.725A9.954,9.954,0,0,0,36.3,5.1a14.288,14.288,0,0,0-4.725-.9c-2.076-.095-2.739-.117-8.026-.117Z" transform="translate(-4.079 -4.079)" fill="#fff"/>
      <path id="パス_14" data-name="パス 14" d="M136.631,126.635a10,10,0,1,0,10,10A10,10,0,0,0,136.631,126.635Zm0,16.485a6.489,6.489,0,1,1,6.489-6.489A6.489,6.489,0,0,1,136.631,143.12Z" transform="translate(-117.165 -117.165)" fill="#fff"/>
      <ellipse id="楕円形_4" data-name="楕円形 4" cx="2.336" cy="2.336" rx="2.336" ry="2.336" transform="translate(27.522 6.739)" fill="#fff"/>
    </g>
    <rect id="長方形_222" data-name="長方形 222" width="55" height="46" transform="translate(6.796 -0.174)" fill="none"/>
  </g>
</svg>
