<svg xmlns="http://www.w3.org/2000/svg" width="55" height="46" viewBox="0 0 55 46">
  <g id="グループ_189" data-name="グループ 189" transform="translate(-7 0.174)">
    <rect id="長方形_220" data-name="長方形 220" width="55" height="46" transform="translate(7 -0.174)" fill="none"/>
    <g id="グループ_49" data-name="グループ 49" transform="translate(14.893 7.222)">
      <path id="パス_11" data-name="パス 11" d="M42.044,16.2c.016.35.023.7.023,1.054,0,10.774-8.2,23.2-23.2,23.2a23.083,23.083,0,0,1-12.5-3.662,16.605,16.605,0,0,0,1.945.113,16.36,16.36,0,0,0,10.127-3.49,8.162,8.162,0,0,1-7.617-5.663,8.138,8.138,0,0,0,3.682-.14,8.157,8.157,0,0,1-6.541-7.994c0-.036,0-.07,0-.1a8.1,8.1,0,0,0,3.693,1.02A8.16,8.16,0,0,1,9.137,9.644a23.148,23.148,0,0,0,16.806,8.519,8.159,8.159,0,0,1,13.895-7.436,16.339,16.339,0,0,0,5.177-1.979,8.183,8.183,0,0,1-3.585,4.51,16.277,16.277,0,0,0,4.682-1.284A16.589,16.589,0,0,1,42.044,16.2Z" transform="translate(-6.371 -8.151)" fill="#fff"/>
    </g>
  </g>
</svg>
