<svg xmlns="http://www.w3.org/2000/svg" width="55" height="46" viewBox="0 0 55 46">
  <g id="グループ_192" data-name="グループ 192" transform="translate(-6.767 0.174)">
    <path id="パス_15" data-name="パス 15" d="M127.193,89.8a5.455,5.455,0,0,0-3.851-3.85c-3.4-.91-17.016-.91-17.016-.91s-13.619,0-17.016.91A5.455,5.455,0,0,0,85.46,89.8c-.91,3.4-.91,10.483-.91,10.483s0,7.087.91,10.483a5.455,5.455,0,0,0,3.851,3.85c3.4.91,17.016.91,17.016.91s13.619,0,17.016-.91a5.454,5.454,0,0,0,3.851-3.85c.91-3.4.91-10.483.91-10.483S128.1,93.2,127.193,89.8Zm-25.222,17.016V93.75l11.315,6.534Z" transform="translate(-71.948 -77.02)" fill="#fff"/>
    <rect id="長方形_223" data-name="長方形 223" width="55" height="46" transform="translate(6.767 -0.174)" fill="none"/>
  </g>
</svg>
